<svg width="40" height="40" viewBox="0 0 91 91" fill="none" xmlns="http://www.w3.org/2000/svg">
  <rect width="90.4594" height="90.4594" rx="4" fill="white"/>
  <mask id="mask0" maskUnits="userSpaceOnUse" x="12" y="14" width="68" height="62">
    <rect x="12.0142" y="14.841" width="67.1378" height="60.7869" fill="white"/>
  </mask>
  <g mask="url(#mask0)">
    <mask id="mask1" maskUnits="userSpaceOnUse" x="45" y="61" width="22" height="21">
      <rect width="14.5039" height="14.5039" transform="matrix(-0.707107 0.707107 0.707107 0.707107 55.8389 61.1117)" fill="white"/>
    </mask>
    <g mask="url(#mask1)">
      <path fill-rule="evenodd" clip-rule="evenodd" d="M66.0948 71.3675C60.4306 77.0316 51.2472 77.0316 45.5831 71.3675C39.919 65.7033 39.919 56.5199 45.5831 50.8558C51.2472 45.1917 60.4306 45.1917 66.0948 50.8558C71.7589 56.5199 71.7589 65.7033 66.0948 71.3675Z" fill="#00B4EE"/>
    </g>
    <mask id="mask2" maskUnits="userSpaceOnUse" x="14" y="50" width="22" height="22">
      <rect x="35.3273" y="61.1117" width="14.5039" height="14.5039" transform="rotate(135 35.3273 61.1117)" fill="white"/>
    </mask>
    <g mask="url(#mask2)">
      <path fill-rule="evenodd" clip-rule="evenodd" d="M25.0714 50.8558C19.4073 56.52 19.4073 65.7034 25.0714 71.3675C30.7356 77.0316 39.919 77.0316 45.5831 71.3675C51.2472 65.7034 51.2472 56.52 45.5831 50.8558C39.919 45.1917 30.7356 45.1917 25.0714 50.8558Z" fill="#00C0FA"/>
    </g>
    <mask id="mask3" maskUnits="userSpaceOnUse" x="25" y="61" width="21" height="21">
      <rect width="14.5039" height="14.5039" transform="matrix(-0.707107 0.707107 0.707107 0.707107 35.3273 61.1117)" fill="white"/>
    </mask>
    <g mask="url(#mask3)">
      <path fill-rule="evenodd" clip-rule="evenodd" d="M45.5831 71.3675C39.919 77.0316 30.7356 77.0316 25.0714 71.3675C19.4073 65.7033 19.4073 56.52 25.0714 50.8558C30.7356 45.1917 39.919 45.1917 45.5831 50.8558C51.2472 56.52 51.2472 65.7033 45.5831 71.3675Z" fill="#00B4EE"/>
    </g>
    <mask id="mask4" maskUnits="userSpaceOnUse" x="35" y="30" width="21" height="21">
      <rect width="14.5039" height="14.5039" transform="matrix(0.707107 -0.707107 -0.707107 -0.707107 45.5831 50.8558)" fill="white"/>
    </mask>
    <g mask="url(#mask4)">
      <path fill-rule="evenodd" clip-rule="evenodd" d="M35.3272 40.6C40.9914 34.9359 50.1748 34.9359 55.8389 40.6C61.503 46.2641 61.503 55.4475 55.8389 61.1117C50.1748 66.7758 40.9914 66.7758 35.3272 61.1117C29.6631 55.4475 29.6631 46.2641 35.3272 40.6Z" fill="#00E2FF"/>
    </g>
    <rect x="55.8389" y="61.1117" width="14.5039" height="14.5039" transform="rotate(135 55.8389 61.1117)" fill="#00C0FA"/>
    <rect x="66.0948" y="50.8558" width="14.5039" height="14.5039" transform="rotate(135 66.0948 50.8558)" fill="#00CEFC"/>
    <rect x="45.5831" y="50.8558" width="14.5039" height="14.5039" transform="rotate(135 45.5831 50.8558)" fill="#00CEFC"/>
    <mask id="mask5" maskUnits="userSpaceOnUse" x="55" y="50" width="22" height="22">
      <rect x="55.8389" y="61.1117" width="14.5039" height="14.5039" transform="rotate(-45 55.8389 61.1117)" fill="white"/>
    </mask>
    <g mask="url(#mask5)">
      <path fill-rule="evenodd" clip-rule="evenodd" d="M66.0948 71.3675C71.7589 65.7034 71.7589 56.52 66.0948 50.8558C60.4306 45.1917 51.2472 45.1917 45.5831 50.8558C39.919 56.52 39.919 65.7034 45.5831 71.3675C51.2472 77.0316 60.4306 77.0316 66.0948 71.3675Z" fill="#00C0FA"/>
    </g>
    <path fill-rule="evenodd" clip-rule="evenodd" d="M35.4763 31.2366C40.0614 31.2366 43.7783 27.5663 43.7783 23.0388C43.7783 18.5113 40.0614 14.841 35.4763 14.841C30.8912 14.841 27.1743 18.5113 27.1743 23.0388C27.1743 27.5663 30.8912 31.2366 35.4763 31.2366Z" fill="#00CEFC"/>
    <path fill-rule="evenodd" clip-rule="evenodd" d="M20.3161 44.7808C24.9012 44.7808 28.6181 41.1106 28.6181 36.583C28.6181 32.0555 24.9012 28.3852 20.3161 28.3852C15.7311 28.3852 12.0142 32.0555 12.0142 36.583C12.0142 41.1106 15.7311 44.7808 20.3161 44.7808Z" fill="#00CEFC"/>
    <path fill-rule="evenodd" clip-rule="evenodd" d="M55.6898 31.2366C60.2749 31.2366 63.9918 27.5663 63.9918 23.0388C63.9918 18.5113 60.2749 14.841 55.6898 14.841C51.1047 14.841 47.3878 18.5113 47.3878 23.0388C47.3878 27.5663 51.1047 31.2366 55.6898 31.2366Z" fill="#00CEFC"/>
    <path fill-rule="evenodd" clip-rule="evenodd" d="M70.85 44.7808C75.435 44.7808 79.1519 41.1106 79.1519 36.583C79.1519 32.0555 75.435 28.3852 70.85 28.3852C66.2649 28.3852 62.548 32.0555 62.548 36.583C62.548 41.1106 66.2649 44.7808 70.85 44.7808Z" fill="#00CEFC"/>
  </g>
</svg>